<mxfile host="app.diagrams.net" modified="2023-09-08T18:49:53.684Z" agent="Mozilla/5.0 (Windows NT 10.0; Win64; x64) AppleWebKit/537.36 (KHTML, like Gecko) Chrome/115.0.0.0 Safari/537.36 OPR/101.0.0.0" etag="oPi4_3nlN7EXZxRdwYt5" version="21.7.4" type="github">
  <diagram name="Page-1" id="U8oaE-fgfNbQesFT1dx-">
    <mxGraphModel dx="2220" dy="1935" grid="1" gridSize="10" guides="1" tooltips="1" connect="1" arrows="1" fold="1" page="1" pageScale="1" pageWidth="827" pageHeight="1169" math="0" shadow="0">
      <root>
        <mxCell id="0" />
        <mxCell id="1" parent="0" />
        <mxCell id="x20BBeTbQhx07ZK-JMbY-1" value="Tanque" style="swimlane;fontStyle=2;align=center;verticalAlign=top;childLayout=stackLayout;horizontal=1;startSize=26;horizontalStack=0;resizeParent=1;resizeLast=0;collapsible=1;marginBottom=0;rounded=0;shadow=0;strokeWidth=1;" vertex="1" parent="1">
          <mxGeometry x="180" y="215" width="220" height="290" as="geometry">
            <mxRectangle x="180" y="215" width="160" height="26" as="alternateBounds" />
          </mxGeometry>
        </mxCell>
        <mxCell id="x20BBeTbQhx07ZK-JMbY-2" value="- angulo: integer" style="text;align=left;verticalAlign=top;spacingLeft=4;spacingRight=4;overflow=hidden;rotatable=0;points=[[0,0.5],[1,0.5]];portConstraint=eastwest;rounded=0;shadow=0;html=0;" vertex="1" parent="x20BBeTbQhx07ZK-JMbY-1">
          <mxGeometry y="26" width="220" height="26" as="geometry" />
        </mxCell>
        <mxCell id="x20BBeTbQhx07ZK-JMbY-3" value="- energia: integer" style="text;align=left;verticalAlign=top;spacingLeft=4;spacingRight=4;overflow=hidden;rotatable=0;points=[[0,0.5],[1,0.5]];portConstraint=eastwest;rounded=0;shadow=0;html=0;" vertex="1" parent="x20BBeTbQhx07ZK-JMbY-1">
          <mxGeometry y="52" width="220" height="26" as="geometry" />
        </mxCell>
        <mxCell id="x20BBeTbQhx07ZK-JMbY-4" value="- estado: boolean" style="text;align=left;verticalAlign=top;spacingLeft=4;spacingRight=4;overflow=hidden;rotatable=0;points=[[0,0.5],[1,0.5]];portConstraint=eastwest;rounded=0;shadow=0;html=0;" vertex="1" parent="x20BBeTbQhx07ZK-JMbY-1">
          <mxGeometry y="78" width="220" height="26" as="geometry" />
        </mxCell>
        <mxCell id="x20BBeTbQhx07ZK-JMbY-5" value="&amp;nbsp;- tiempo: integer" style="text;whiteSpace=wrap;html=1;" vertex="1" parent="x20BBeTbQhx07ZK-JMbY-1">
          <mxGeometry y="104" width="220" height="30" as="geometry" />
        </mxCell>
        <mxCell id="x20BBeTbQhx07ZK-JMbY-6" value="" style="line;html=1;strokeWidth=1;align=left;verticalAlign=middle;spacingTop=-1;spacingLeft=3;spacingRight=3;rotatable=0;labelPosition=right;points=[];portConstraint=eastwest;" vertex="1" parent="x20BBeTbQhx07ZK-JMbY-1">
          <mxGeometry y="134" width="220" height="20" as="geometry" />
        </mxCell>
        <mxCell id="x20BBeTbQhx07ZK-JMbY-7" value="+ intentoDeDisparo(integer): Posicion" style="text;align=left;verticalAlign=top;spacingLeft=4;spacingRight=4;overflow=hidden;rotatable=0;points=[[0,0.5],[1,0.5]];portConstraint=eastwest;rounded=0;shadow=0;html=0;" vertex="1" parent="x20BBeTbQhx07ZK-JMbY-1">
          <mxGeometry y="154" width="220" height="30" as="geometry" />
        </mxCell>
        <mxCell id="x20BBeTbQhx07ZK-JMbY-8" value="&amp;nbsp;+ deshabilitar(): integer" style="text;html=1;align=left;verticalAlign=middle;resizable=0;points=[];autosize=1;strokeColor=none;fillColor=none;" vertex="1" parent="x20BBeTbQhx07ZK-JMbY-1">
          <mxGeometry y="184" width="220" height="30" as="geometry" />
        </mxCell>
        <mxCell id="x20BBeTbQhx07ZK-JMbY-9" value="Torreta" style="swimlane;fontStyle=0;align=center;verticalAlign=top;childLayout=stackLayout;horizontal=1;startSize=26;horizontalStack=0;resizeParent=1;resizeLast=0;collapsible=1;marginBottom=0;rounded=0;shadow=0;strokeWidth=1;" vertex="1" parent="1">
          <mxGeometry x="560" y="295" width="192" height="130" as="geometry">
            <mxRectangle x="550" y="140" width="160" height="26" as="alternateBounds" />
          </mxGeometry>
        </mxCell>
        <mxCell id="x20BBeTbQhx07ZK-JMbY-10" value="&amp;nbsp;- tipoActual: integer" style="text;html=1;align=left;verticalAlign=middle;resizable=0;points=[];autosize=1;strokeColor=none;fillColor=none;" vertex="1" parent="x20BBeTbQhx07ZK-JMbY-9">
          <mxGeometry y="26" width="192" height="30" as="geometry" />
        </mxCell>
        <mxCell id="x20BBeTbQhx07ZK-JMbY-11" value="" style="line;html=1;strokeWidth=1;align=left;verticalAlign=middle;spacingTop=-1;spacingLeft=3;spacingRight=3;rotatable=0;labelPosition=right;points=[];portConstraint=eastwest;" vertex="1" parent="x20BBeTbQhx07ZK-JMbY-9">
          <mxGeometry y="56" width="192" height="10" as="geometry" />
        </mxCell>
        <mxCell id="x20BBeTbQhx07ZK-JMbY-12" value="&amp;nbsp;+ disparar(): void" style="text;html=1;align=left;verticalAlign=middle;resizable=0;points=[];autosize=1;strokeColor=none;fillColor=none;" vertex="1" parent="x20BBeTbQhx07ZK-JMbY-9">
          <mxGeometry y="66" width="192" height="30" as="geometry" />
        </mxCell>
        <mxCell id="x20BBeTbQhx07ZK-JMbY-13" value="Juego" style="swimlane;fontStyle=1;align=center;verticalAlign=top;childLayout=stackLayout;horizontal=1;startSize=26;horizontalStack=0;resizeParent=1;resizeParentMax=0;resizeLast=0;collapsible=1;marginBottom=0;whiteSpace=wrap;html=1;" vertex="1" parent="1">
          <mxGeometry x="135" y="-300" width="290" height="258" as="geometry" />
        </mxCell>
        <mxCell id="x20BBeTbQhx07ZK-JMbY-14" value="- campo: Celda[600][800]" style="text;strokeColor=none;fillColor=none;align=left;verticalAlign=top;spacingLeft=4;spacingRight=4;overflow=hidden;rotatable=0;points=[[0,0.5],[1,0.5]];portConstraint=eastwest;whiteSpace=wrap;html=1;" vertex="1" parent="x20BBeTbQhx07ZK-JMbY-13">
          <mxGeometry y="26" width="290" height="32" as="geometry" />
        </mxCell>
        <mxCell id="x20BBeTbQhx07ZK-JMbY-15" value="" style="line;strokeWidth=1;fillColor=none;align=left;verticalAlign=middle;spacingTop=-1;spacingLeft=3;spacingRight=3;rotatable=0;labelPosition=right;points=[];portConstraint=eastwest;strokeColor=inherit;" vertex="1" parent="x20BBeTbQhx07ZK-JMbY-13">
          <mxGeometry y="58" width="290" height="20" as="geometry" />
        </mxCell>
        <mxCell id="x20BBeTbQhx07ZK-JMbY-16" value="&amp;nbsp;+ main(String[]): void" style="text;html=1;align=left;verticalAlign=middle;resizable=0;points=[];autosize=1;strokeColor=none;fillColor=none;" vertex="1" parent="x20BBeTbQhx07ZK-JMbY-13">
          <mxGeometry y="78" width="290" height="30" as="geometry" />
        </mxCell>
        <mxCell id="x20BBeTbQhx07ZK-JMbY-17" value="&amp;nbsp;- comenzar(): void" style="text;html=1;align=left;verticalAlign=middle;resizable=0;points=[];autosize=1;strokeColor=none;fillColor=none;" vertex="1" parent="x20BBeTbQhx07ZK-JMbY-13">
          <mxGeometry y="108" width="290" height="30" as="geometry" />
        </mxCell>
        <mxCell id="x20BBeTbQhx07ZK-JMbY-18" value="&lt;font style=&quot;font-size: 12px;&quot;&gt;&amp;nbsp;- agregarTanqueAlEscuadron(Tanque): void&lt;/font&gt;" style="text;html=1;align=left;verticalAlign=middle;resizable=0;points=[];autosize=1;strokeColor=none;fillColor=none;" vertex="1" parent="x20BBeTbQhx07ZK-JMbY-13">
          <mxGeometry y="138" width="290" height="30" as="geometry" />
        </mxCell>
        <mxCell id="x20BBeTbQhx07ZK-JMbY-19" value="&amp;nbsp;- iniciarJugador(Tanque): void" style="text;html=1;align=left;verticalAlign=middle;resizable=0;points=[];autosize=1;strokeColor=none;fillColor=none;" vertex="1" parent="x20BBeTbQhx07ZK-JMbY-13">
          <mxGeometry y="168" width="290" height="30" as="geometry" />
        </mxCell>
        <mxCell id="x20BBeTbQhx07ZK-JMbY-20" value="&amp;nbsp;- gameLoop(): void" style="text;html=1;align=left;verticalAlign=middle;resizable=0;points=[];autosize=1;strokeColor=none;fillColor=none;" vertex="1" parent="x20BBeTbQhx07ZK-JMbY-13">
          <mxGeometry y="198" width="290" height="30" as="geometry" />
        </mxCell>
        <mxCell id="x20BBeTbQhx07ZK-JMbY-21" value="&amp;nbsp;- exit(): boolean" style="text;html=1;align=left;verticalAlign=middle;resizable=0;points=[];autosize=1;strokeColor=none;fillColor=none;" vertex="1" parent="x20BBeTbQhx07ZK-JMbY-13">
          <mxGeometry y="228" width="290" height="30" as="geometry" />
        </mxCell>
        <mxCell id="x20BBeTbQhx07ZK-JMbY-22" value="Posicion" style="swimlane;fontStyle=1;align=center;verticalAlign=top;childLayout=stackLayout;horizontal=1;startSize=26;horizontalStack=0;resizeParent=1;resizeParentMax=0;resizeLast=0;collapsible=1;marginBottom=0;whiteSpace=wrap;html=1;" vertex="1" parent="1">
          <mxGeometry x="175" y="650" width="210" height="206" as="geometry">
            <mxRectangle x="225" y="650" width="110" height="30" as="alternateBounds" />
          </mxGeometry>
        </mxCell>
        <mxCell id="x20BBeTbQhx07ZK-JMbY-23" value="- pos_x: double" style="text;strokeColor=none;fillColor=none;align=left;verticalAlign=top;spacingLeft=4;spacingRight=4;overflow=hidden;rotatable=0;points=[[0,0.5],[1,0.5]];portConstraint=eastwest;whiteSpace=wrap;html=1;" vertex="1" parent="x20BBeTbQhx07ZK-JMbY-22">
          <mxGeometry y="26" width="210" height="26" as="geometry" />
        </mxCell>
        <mxCell id="x20BBeTbQhx07ZK-JMbY-24" value="&amp;nbsp;- pos_y: double" style="text;whiteSpace=wrap;html=1;" vertex="1" parent="x20BBeTbQhx07ZK-JMbY-22">
          <mxGeometry y="52" width="210" height="30" as="geometry" />
        </mxCell>
        <mxCell id="x20BBeTbQhx07ZK-JMbY-25" value="" style="line;strokeWidth=1;fillColor=none;align=left;verticalAlign=middle;spacingTop=-1;spacingLeft=3;spacingRight=3;rotatable=0;labelPosition=right;points=[];portConstraint=eastwest;strokeColor=inherit;" vertex="1" parent="x20BBeTbQhx07ZK-JMbY-22">
          <mxGeometry y="82" width="210" height="8" as="geometry" />
        </mxCell>
        <mxCell id="x20BBeTbQhx07ZK-JMbY-26" value="+ setPos_x(double): void" style="text;strokeColor=none;fillColor=none;align=left;verticalAlign=top;spacingLeft=4;spacingRight=4;overflow=hidden;rotatable=0;points=[[0,0.5],[1,0.5]];portConstraint=eastwest;whiteSpace=wrap;html=1;" vertex="1" parent="x20BBeTbQhx07ZK-JMbY-22">
          <mxGeometry y="90" width="210" height="26" as="geometry" />
        </mxCell>
        <mxCell id="x20BBeTbQhx07ZK-JMbY-27" value="&amp;nbsp;+ setPos_y(double): void" style="text;whiteSpace=wrap;html=1;" vertex="1" parent="x20BBeTbQhx07ZK-JMbY-22">
          <mxGeometry y="116" width="210" height="30" as="geometry" />
        </mxCell>
        <mxCell id="x20BBeTbQhx07ZK-JMbY-28" value="&amp;nbsp;+ getPos_x(): double" style="text;whiteSpace=wrap;html=1;" vertex="1" parent="x20BBeTbQhx07ZK-JMbY-22">
          <mxGeometry y="146" width="210" height="30" as="geometry" />
        </mxCell>
        <mxCell id="x20BBeTbQhx07ZK-JMbY-29" value="&amp;nbsp;+ getPos_y(): double" style="text;whiteSpace=wrap;html=1;" vertex="1" parent="x20BBeTbQhx07ZK-JMbY-22">
          <mxGeometry y="176" width="210" height="30" as="geometry" />
        </mxCell>
        <mxCell id="x20BBeTbQhx07ZK-JMbY-30" value="Radar" style="swimlane;fontStyle=1;align=center;verticalAlign=top;childLayout=stackLayout;horizontal=1;startSize=26;horizontalStack=0;resizeParent=1;resizeParentMax=0;resizeLast=0;collapsible=1;marginBottom=0;whiteSpace=wrap;html=1;" vertex="1" parent="1">
          <mxGeometry x="-180" y="290" width="220" height="140" as="geometry">
            <mxRectangle x="-150" y="-20" width="110" height="30" as="alternateBounds" />
          </mxGeometry>
        </mxCell>
        <mxCell id="x20BBeTbQhx07ZK-JMbY-31" value="- Angulo: integer" style="text;strokeColor=none;fillColor=none;align=left;verticalAlign=top;spacingLeft=4;spacingRight=4;overflow=hidden;rotatable=0;points=[[0,0.5],[1,0.5]];portConstraint=eastwest;whiteSpace=wrap;html=1;" vertex="1" parent="x20BBeTbQhx07ZK-JMbY-30">
          <mxGeometry y="26" width="220" height="26" as="geometry" />
        </mxCell>
        <mxCell id="x20BBeTbQhx07ZK-JMbY-32" value="- Alcance: integer" style="text;strokeColor=none;fillColor=none;align=left;verticalAlign=top;spacingLeft=4;spacingRight=4;overflow=hidden;rotatable=0;points=[[0,0.5],[1,0.5]];portConstraint=eastwest;whiteSpace=wrap;html=1;" vertex="1" parent="x20BBeTbQhx07ZK-JMbY-30">
          <mxGeometry y="52" width="220" height="26" as="geometry" />
        </mxCell>
        <mxCell id="x20BBeTbQhx07ZK-JMbY-33" value="" style="line;strokeWidth=1;fillColor=none;align=left;verticalAlign=middle;spacingTop=-1;spacingLeft=3;spacingRight=3;rotatable=0;labelPosition=right;points=[];portConstraint=eastwest;strokeColor=inherit;" vertex="1" parent="x20BBeTbQhx07ZK-JMbY-30">
          <mxGeometry y="78" width="220" height="8" as="geometry" />
        </mxCell>
        <mxCell id="x20BBeTbQhx07ZK-JMbY-34" value="+ detectarJugador(): boolean" style="text;strokeColor=none;fillColor=none;align=left;verticalAlign=top;spacingLeft=4;spacingRight=4;overflow=hidden;rotatable=0;points=[[0,0.5],[1,0.5]];portConstraint=eastwest;whiteSpace=wrap;html=1;" vertex="1" parent="x20BBeTbQhx07ZK-JMbY-30">
          <mxGeometry y="86" width="220" height="24" as="geometry" />
        </mxCell>
        <mxCell id="x20BBeTbQhx07ZK-JMbY-35" value="&amp;nbsp;+ posicionDelEnemigo(): Posicion" style="text;whiteSpace=wrap;html=1;" vertex="1" parent="x20BBeTbQhx07ZK-JMbY-30">
          <mxGeometry y="110" width="220" height="30" as="geometry" />
        </mxCell>
        <mxCell id="x20BBeTbQhx07ZK-JMbY-36" value="" style="endArrow=diamondThin;endFill=0;endSize=24;html=1;rounded=0;" edge="1" parent="1" source="x20BBeTbQhx07ZK-JMbY-9" target="x20BBeTbQhx07ZK-JMbY-1">
          <mxGeometry width="160" relative="1" as="geometry">
            <mxPoint x="280" y="320" as="sourcePoint" />
            <mxPoint x="383" y="280.99" as="targetPoint" />
          </mxGeometry>
        </mxCell>
        <mxCell id="x20BBeTbQhx07ZK-JMbY-37" value="Proyectil" style="swimlane;fontStyle=1;align=center;verticalAlign=top;childLayout=stackLayout;horizontal=1;startSize=26;horizontalStack=0;resizeParent=1;resizeParentMax=0;resizeLast=0;collapsible=1;marginBottom=0;whiteSpace=wrap;html=1;" vertex="1" parent="1">
          <mxGeometry x="960" y="260" width="160" height="200" as="geometry">
            <mxRectangle x="890" y="40" width="100" height="30" as="alternateBounds" />
          </mxGeometry>
        </mxCell>
        <mxCell id="x20BBeTbQhx07ZK-JMbY-38" value="- tipo: integer" style="text;strokeColor=none;fillColor=none;align=left;verticalAlign=top;spacingLeft=4;spacingRight=4;overflow=hidden;rotatable=0;points=[[0,0.5],[1,0.5]];portConstraint=eastwest;whiteSpace=wrap;html=1;" vertex="1" parent="x20BBeTbQhx07ZK-JMbY-37">
          <mxGeometry y="26" width="160" height="26" as="geometry" />
        </mxCell>
        <mxCell id="x20BBeTbQhx07ZK-JMbY-39" value="- daño: double" style="text;strokeColor=none;fillColor=none;align=left;verticalAlign=top;spacingLeft=4;spacingRight=4;overflow=hidden;rotatable=0;points=[[0,0.5],[1,0.5]];portConstraint=eastwest;whiteSpace=wrap;html=1;" vertex="1" parent="x20BBeTbQhx07ZK-JMbY-37">
          <mxGeometry y="52" width="160" height="26" as="geometry" />
        </mxCell>
        <mxCell id="x20BBeTbQhx07ZK-JMbY-40" value="" style="line;strokeWidth=1;fillColor=none;align=left;verticalAlign=middle;spacingTop=-1;spacingLeft=3;spacingRight=3;rotatable=0;labelPosition=right;points=[];portConstraint=eastwest;strokeColor=inherit;" vertex="1" parent="x20BBeTbQhx07ZK-JMbY-37">
          <mxGeometry y="78" width="160" height="8" as="geometry" />
        </mxCell>
        <mxCell id="x20BBeTbQhx07ZK-JMbY-41" value="&amp;nbsp;+ getDaño(): integer" style="text;whiteSpace=wrap;html=1;" vertex="1" parent="x20BBeTbQhx07ZK-JMbY-37">
          <mxGeometry y="86" width="160" height="24" as="geometry" />
        </mxCell>
        <mxCell id="x20BBeTbQhx07ZK-JMbY-42" value="&amp;nbsp;+ setTipo(integer): void" style="text;whiteSpace=wrap;html=1;" vertex="1" parent="x20BBeTbQhx07ZK-JMbY-37">
          <mxGeometry y="110" width="160" height="30" as="geometry" />
        </mxCell>
        <mxCell id="x20BBeTbQhx07ZK-JMbY-43" value="&amp;nbsp;+ setDaño(integer): void" style="text;whiteSpace=wrap;html=1;" vertex="1" parent="x20BBeTbQhx07ZK-JMbY-37">
          <mxGeometry y="140" width="160" height="30" as="geometry" />
        </mxCell>
        <mxCell id="x20BBeTbQhx07ZK-JMbY-44" value="+ getTipo(): integer" style="text;strokeColor=none;fillColor=none;align=left;verticalAlign=top;spacingLeft=4;spacingRight=4;overflow=hidden;rotatable=0;points=[[0,0.5],[1,0.5]];portConstraint=eastwest;whiteSpace=wrap;html=1;" vertex="1" parent="x20BBeTbQhx07ZK-JMbY-37">
          <mxGeometry y="170" width="160" height="30" as="geometry" />
        </mxCell>
        <mxCell id="x20BBeTbQhx07ZK-JMbY-45" value="" style="endArrow=diamondThin;endFill=0;endSize=24;html=1;rounded=0;" edge="1" parent="1" source="x20BBeTbQhx07ZK-JMbY-37" target="x20BBeTbQhx07ZK-JMbY-9">
          <mxGeometry width="160" relative="1" as="geometry">
            <mxPoint x="620" y="90" as="sourcePoint" />
            <mxPoint x="780" y="90" as="targetPoint" />
          </mxGeometry>
        </mxCell>
        <mxCell id="x20BBeTbQhx07ZK-JMbY-46" value="" style="endArrow=diamondThin;endFill=0;endSize=24;html=1;rounded=0;" edge="1" parent="1" source="x20BBeTbQhx07ZK-JMbY-30" target="x20BBeTbQhx07ZK-JMbY-1">
          <mxGeometry width="160" relative="1" as="geometry">
            <mxPoint x="120" y="120" as="sourcePoint" />
            <mxPoint x="280" y="120" as="targetPoint" />
          </mxGeometry>
        </mxCell>
        <mxCell id="x20BBeTbQhx07ZK-JMbY-47" value="1" style="text;html=1;align=center;verticalAlign=middle;resizable=0;points=[];autosize=1;strokeColor=none;fillColor=none;rotation=270;" vertex="1" parent="1">
          <mxGeometry x="250" y="620" width="30" height="30" as="geometry" />
        </mxCell>
        <mxCell id="x20BBeTbQhx07ZK-JMbY-48" value="pos" style="text;html=1;align=center;verticalAlign=middle;resizable=0;points=[];autosize=1;strokeColor=none;fillColor=none;rotation=-90;" vertex="1" parent="1">
          <mxGeometry x="245" y="530" width="40" height="30" as="geometry" />
        </mxCell>
        <mxCell id="x20BBeTbQhx07ZK-JMbY-49" value="torreta" style="text;html=1;align=center;verticalAlign=middle;resizable=0;points=[];autosize=1;strokeColor=none;fillColor=none;" vertex="1" parent="1">
          <mxGeometry x="390" y="330" width="70" height="30" as="geometry" />
        </mxCell>
        <mxCell id="x20BBeTbQhx07ZK-JMbY-50" value="1" style="text;html=1;align=center;verticalAlign=middle;resizable=0;points=[];autosize=1;strokeColor=none;fillColor=none;" vertex="1" parent="1">
          <mxGeometry x="530" y="330" width="30" height="30" as="geometry" />
        </mxCell>
        <mxCell id="x20BBeTbQhx07ZK-JMbY-51" value="proyectiles[]" style="text;html=1;align=center;verticalAlign=middle;resizable=0;points=[];autosize=1;strokeColor=none;fillColor=none;" vertex="1" parent="1">
          <mxGeometry x="765" y="330" width="100" height="30" as="geometry" />
        </mxCell>
        <mxCell id="x20BBeTbQhx07ZK-JMbY-52" value="0..n" style="text;html=1;align=center;verticalAlign=middle;resizable=0;points=[];autosize=1;strokeColor=none;fillColor=none;" vertex="1" parent="1">
          <mxGeometry x="910" y="330" width="50" height="30" as="geometry" />
        </mxCell>
        <mxCell id="x20BBeTbQhx07ZK-JMbY-53" value="0..n" style="text;html=1;align=center;verticalAlign=middle;resizable=0;points=[];autosize=1;strokeColor=none;fillColor=none;rotation=270;" vertex="1" parent="1">
          <mxGeometry x="245" y="180" width="50" height="30" as="geometry" />
        </mxCell>
        <mxCell id="x20BBeTbQhx07ZK-JMbY-54" value="1" style="text;html=1;align=center;verticalAlign=middle;resizable=0;points=[];autosize=1;strokeColor=none;fillColor=none;" vertex="1" parent="1">
          <mxGeometry x="40" y="330" width="30" height="30" as="geometry" />
        </mxCell>
        <mxCell id="x20BBeTbQhx07ZK-JMbY-55" value="radar" style="text;html=1;align=center;verticalAlign=middle;resizable=0;points=[];autosize=1;strokeColor=none;fillColor=none;" vertex="1" parent="1">
          <mxGeometry x="100" y="330" width="60" height="30" as="geometry" />
        </mxCell>
        <mxCell id="x20BBeTbQhx07ZK-JMbY-56" value="" style="endArrow=diamondThin;endFill=0;endSize=24;html=1;rounded=0;" edge="1" parent="1" source="x20BBeTbQhx07ZK-JMbY-1" target="x20BBeTbQhx07ZK-JMbY-13">
          <mxGeometry width="160" relative="1" as="geometry">
            <mxPoint x="420" y="190" as="sourcePoint" />
            <mxPoint x="580" y="190" as="targetPoint" />
          </mxGeometry>
        </mxCell>
        <mxCell id="x20BBeTbQhx07ZK-JMbY-57" value="escuadron" style="text;html=1;align=left;verticalAlign=middle;resizable=0;points=[];autosize=1;strokeColor=none;fillColor=none;rotation=-90;" vertex="1" parent="1">
          <mxGeometry x="225" y="50" width="90" height="30" as="geometry" />
        </mxCell>
        <mxCell id="x20BBeTbQhx07ZK-JMbY-58" value="" style="endArrow=diamondThin;endFill=0;endSize=24;html=1;rounded=0;" edge="1" parent="1" source="x20BBeTbQhx07ZK-JMbY-1" target="x20BBeTbQhx07ZK-JMbY-13">
          <mxGeometry width="160" relative="1" as="geometry">
            <mxPoint x="420" y="50" as="sourcePoint" />
            <mxPoint x="380" y="20" as="targetPoint" />
            <Array as="points">
              <mxPoint x="490" />
            </Array>
          </mxGeometry>
        </mxCell>
        <mxCell id="x20BBeTbQhx07ZK-JMbY-59" value="1" style="text;html=1;align=center;verticalAlign=middle;resizable=0;points=[];autosize=1;strokeColor=none;fillColor=none;rotation=-60;" vertex="1" parent="1">
          <mxGeometry x="350" y="180" width="30" height="30" as="geometry" />
        </mxCell>
        <mxCell id="x20BBeTbQhx07ZK-JMbY-60" value="jugador" style="text;html=1;align=center;verticalAlign=middle;resizable=0;points=[];autosize=1;strokeColor=none;fillColor=none;rotation=-60;" vertex="1" parent="1">
          <mxGeometry x="420" y="20" width="70" height="30" as="geometry" />
        </mxCell>
        <mxCell id="x20BBeTbQhx07ZK-JMbY-61" value="Celda" style="swimlane;fontStyle=1;align=center;verticalAlign=top;childLayout=stackLayout;horizontal=1;startSize=26;horizontalStack=0;resizeParent=1;resizeParentMax=0;resizeLast=0;collapsible=1;marginBottom=0;whiteSpace=wrap;html=1;" vertex="1" parent="1">
          <mxGeometry x="-380" y="-309" width="300" height="276" as="geometry" />
        </mxCell>
        <mxCell id="x20BBeTbQhx07ZK-JMbY-62" value="- tengoEscuadron: boolean" style="text;strokeColor=none;fillColor=none;align=left;verticalAlign=top;spacingLeft=4;spacingRight=4;overflow=hidden;rotatable=0;points=[[0,0.5],[1,0.5]];portConstraint=eastwest;whiteSpace=wrap;html=1;" vertex="1" parent="x20BBeTbQhx07ZK-JMbY-61">
          <mxGeometry y="26" width="300" height="26" as="geometry" />
        </mxCell>
        <mxCell id="x20BBeTbQhx07ZK-JMbY-63" value="&amp;nbsp;- tengoJugador: boolean" style="text;html=1;align=left;verticalAlign=middle;resizable=0;points=[];autosize=1;strokeColor=none;fillColor=none;" vertex="1" parent="x20BBeTbQhx07ZK-JMbY-61">
          <mxGeometry y="52" width="300" height="30" as="geometry" />
        </mxCell>
        <mxCell id="x20BBeTbQhx07ZK-JMbY-64" value="&amp;nbsp;- numeroDeTanque: integer" style="text;html=1;align=left;verticalAlign=middle;resizable=0;points=[];autosize=1;strokeColor=none;fillColor=none;" vertex="1" parent="x20BBeTbQhx07ZK-JMbY-61">
          <mxGeometry y="82" width="300" height="30" as="geometry" />
        </mxCell>
        <mxCell id="x20BBeTbQhx07ZK-JMbY-65" value="" style="line;strokeWidth=1;fillColor=none;align=left;verticalAlign=middle;spacingTop=-1;spacingLeft=3;spacingRight=3;rotatable=0;labelPosition=right;points=[];portConstraint=eastwest;strokeColor=inherit;" vertex="1" parent="x20BBeTbQhx07ZK-JMbY-61">
          <mxGeometry y="112" width="300" height="8" as="geometry" />
        </mxCell>
        <mxCell id="x20BBeTbQhx07ZK-JMbY-66" value="+ getTengoEscuadron(): boolean" style="text;strokeColor=none;fillColor=none;align=left;verticalAlign=top;spacingLeft=4;spacingRight=4;overflow=hidden;rotatable=0;points=[[0,0.5],[1,0.5]];portConstraint=eastwest;whiteSpace=wrap;html=1;" vertex="1" parent="x20BBeTbQhx07ZK-JMbY-61">
          <mxGeometry y="120" width="300" height="26" as="geometry" />
        </mxCell>
        <mxCell id="x20BBeTbQhx07ZK-JMbY-67" value="+ getTengoJugador(): boolean" style="text;strokeColor=none;fillColor=none;align=left;verticalAlign=top;spacingLeft=4;spacingRight=4;overflow=hidden;rotatable=0;points=[[0,0.5],[1,0.5]];portConstraint=eastwest;whiteSpace=wrap;html=1;" vertex="1" parent="x20BBeTbQhx07ZK-JMbY-61">
          <mxGeometry y="146" width="300" height="26" as="geometry" />
        </mxCell>
        <mxCell id="x20BBeTbQhx07ZK-JMbY-68" value="+ getNumeroDeTanque(): integer" style="text;strokeColor=none;fillColor=none;align=left;verticalAlign=top;spacingLeft=4;spacingRight=4;overflow=hidden;rotatable=0;points=[[0,0.5],[1,0.5]];portConstraint=eastwest;whiteSpace=wrap;html=1;" vertex="1" parent="x20BBeTbQhx07ZK-JMbY-61">
          <mxGeometry y="172" width="300" height="26" as="geometry" />
        </mxCell>
        <mxCell id="x20BBeTbQhx07ZK-JMbY-69" value="+ setTengoEscuadron(boolean): void" style="text;strokeColor=none;fillColor=none;align=left;verticalAlign=top;spacingLeft=4;spacingRight=4;overflow=hidden;rotatable=0;points=[[0,0.5],[1,0.5]];portConstraint=eastwest;whiteSpace=wrap;html=1;" vertex="1" parent="x20BBeTbQhx07ZK-JMbY-61">
          <mxGeometry y="198" width="300" height="26" as="geometry" />
        </mxCell>
        <mxCell id="x20BBeTbQhx07ZK-JMbY-70" value="+ setTengoJugador(boolean): void" style="text;strokeColor=none;fillColor=none;align=left;verticalAlign=top;spacingLeft=4;spacingRight=4;overflow=hidden;rotatable=0;points=[[0,0.5],[1,0.5]];portConstraint=eastwest;whiteSpace=wrap;html=1;" vertex="1" parent="x20BBeTbQhx07ZK-JMbY-61">
          <mxGeometry y="224" width="300" height="26" as="geometry" />
        </mxCell>
        <mxCell id="x20BBeTbQhx07ZK-JMbY-71" value="+ setNumeroDeTanque(integer): void" style="text;strokeColor=none;fillColor=none;align=left;verticalAlign=top;spacingLeft=4;spacingRight=4;overflow=hidden;rotatable=0;points=[[0,0.5],[1,0.5]];portConstraint=eastwest;whiteSpace=wrap;html=1;" vertex="1" parent="x20BBeTbQhx07ZK-JMbY-61">
          <mxGeometry y="250" width="300" height="26" as="geometry" />
        </mxCell>
        <mxCell id="x20BBeTbQhx07ZK-JMbY-72" value="" style="endArrow=diamondThin;endFill=0;endSize=24;html=1;rounded=0;" edge="1" parent="1" source="x20BBeTbQhx07ZK-JMbY-61" target="x20BBeTbQhx07ZK-JMbY-13">
          <mxGeometry width="160" relative="1" as="geometry">
            <mxPoint x="100" y="-130" as="sourcePoint" />
            <mxPoint x="260" y="-130" as="targetPoint" />
          </mxGeometry>
        </mxCell>
        <mxCell id="x20BBeTbQhx07ZK-JMbY-73" value="campo[600][800]" style="text;html=1;align=center;verticalAlign=middle;resizable=0;points=[];autosize=1;strokeColor=none;fillColor=none;" vertex="1" parent="1">
          <mxGeometry y="-200" width="130" height="30" as="geometry" />
        </mxCell>
        <mxCell id="x20BBeTbQhx07ZK-JMbY-74" value="1" style="text;html=1;align=center;verticalAlign=middle;resizable=0;points=[];autosize=1;strokeColor=none;fillColor=none;" vertex="1" parent="1">
          <mxGeometry x="-80" y="-200" width="30" height="30" as="geometry" />
        </mxCell>
        <mxCell id="x20BBeTbQhx07ZK-JMbY-75" value="" style="endArrow=diamondThin;endFill=0;endSize=24;html=1;rounded=0;" edge="1" parent="1" source="x20BBeTbQhx07ZK-JMbY-22" target="x20BBeTbQhx07ZK-JMbY-1">
          <mxGeometry width="160" relative="1" as="geometry">
            <mxPoint x="220" y="620" as="sourcePoint" />
            <mxPoint x="380" y="620" as="targetPoint" />
          </mxGeometry>
        </mxCell>
      </root>
    </mxGraphModel>
  </diagram>
</mxfile>
